<svg width="182" height="182" viewBox="0 0 182 182" fill="none" xmlns="http://www.w3.org/2000/svg">
<rect width="182" height="182" rx="30" fill="#21143A"/>
<path fill-rule="evenodd" clip-rule="evenodd" d="M89.9495 124.856H64.1539C62.5112 124.856 60.9357 124.212 59.7735 123.064L23.8125 87.5118C22.6517 86.3628 21.9998 84.8051 22.0001 83.1812V67.4534C22.0001 65.8281 22.6519 64.2692 23.8125 63.1182L70.6711 16.7918C71.8343 15.6455 73.4092 15.0013 75.0515 15H131.524C133.166 15.0003 134.742 15.6447 135.904 16.7918L156.55 37.1664C157.713 38.3147 158.366 39.8725 158.367 41.4971V57.5365C158.368 58.1428 158.187 58.7358 157.847 59.2403C157.507 59.7449 157.023 60.1381 156.457 60.3703C155.89 60.6025 155.266 60.6632 154.665 60.5445C154.064 60.4259 153.511 60.1334 153.078 59.7041L128.219 35.1226C127.644 34.5541 126.961 34.1033 126.209 33.7959C125.457 33.4884 124.652 33.3304 123.839 33.3307H82.723C81.0882 33.3377 79.5229 33.9854 78.3704 35.1317L42.3538 70.7346C41.1944 71.8845 40.5427 73.4416 40.5414 75.0652V75.5693C40.5402 77.1917 41.1885 78.7486 42.3446 79.9L67.4496 104.724C68.0249 105.293 68.7079 105.744 69.4595 106.051C70.2111 106.359 71.0166 106.517 71.83 106.516H82.2595C83.0738 106.518 83.8805 106.361 84.6331 106.053C85.3856 105.746 86.0693 105.294 86.6445 104.724L100.963 90.5685C101.251 90.284 101.592 90.0583 101.968 89.9044C102.344 89.7504 102.747 89.6711 103.153 89.6711C103.56 89.6711 103.963 89.7504 104.339 89.9044C104.715 90.0583 105.056 90.284 105.343 90.5685L114.063 99.2022C114.35 99.4865 114.579 99.8241 114.734 100.196C114.89 100.567 114.97 100.965 114.97 101.368C114.97 101.77 114.89 102.168 114.734 102.539C114.579 102.911 114.35 103.249 114.063 103.533L94.3114 123.06C93.1544 124.204 91.5864 124.85 89.9495 124.856ZM90.4177 51.7027H116.213C117.856 51.7025 119.432 52.347 120.594 53.4945L156.555 89.0333C157.716 90.1823 158.367 91.7399 158.367 93.3639V109.105C158.366 110.729 157.714 112.286 156.555 113.436L109.696 159.767C108.533 160.913 106.958 161.558 105.316 161.559H48.8433C47.201 161.558 45.626 160.913 44.4629 159.767L23.8171 139.397C22.6546 138.249 22.0011 136.691 22.0001 135.066V119.027C21.9961 118.419 22.175 117.825 22.5141 117.318C22.8532 116.811 23.3371 116.416 23.9042 116.182C24.4714 115.948 25.096 115.886 25.6988 116.004C26.3015 116.123 26.8551 116.415 27.289 116.846L52.1298 141.427C52.7081 141.996 53.3944 142.446 54.1493 142.752C54.9042 143.058 55.7129 143.214 56.5287 143.21H97.6256C98.4392 143.211 99.245 143.054 99.9967 142.746C100.748 142.439 101.431 141.987 102.006 141.418L138.023 105.815C139.182 104.665 139.834 103.108 139.835 101.484V100.98C139.834 99.3567 139.182 97.7996 138.023 96.6497L112.913 71.8253C112.338 71.2568 111.655 70.806 110.903 70.4986C110.151 70.1911 109.346 70.0331 108.533 70.0335H98.1031C97.2896 70.0326 96.484 70.1904 95.7323 70.4979C94.9806 70.8054 94.2977 71.2564 93.7227 71.8253L79.4041 85.9904C79.1166 86.2748 78.7751 86.5005 78.3993 86.6545C78.0235 86.8084 77.6207 86.8877 77.2139 86.8877C76.8071 86.8877 76.4043 86.8084 76.0285 86.6545C75.6527 86.5005 75.3113 86.2748 75.0237 85.9904L66.2861 77.3566C65.9984 77.0723 65.7701 76.7347 65.6144 76.3632C65.4586 75.9917 65.3785 75.5934 65.3785 75.1913C65.3785 74.7891 65.4586 74.3909 65.6144 74.0193C65.7701 73.6478 65.9984 73.3102 66.2861 73.026L86.0373 53.4945C87.2004 52.3482 88.7754 51.704 90.4177 51.7027Z" fill="#FBFBFB"/>
</svg>
