<svg width="842" height="915" viewBox="0 0 842 915" fill="none" xmlns="http://www.w3.org/2000/svg">
<path d="M260.154 685.771H419.353C429.455 685.735 439.132 681.704 446.272 674.557L568.167 552.662C569.943 550.887 571.352 548.78 572.313 546.461C573.274 544.142 573.769 541.656 573.769 539.145C573.769 536.635 573.274 534.149 572.313 531.829C571.352 529.51 569.943 527.403 568.167 525.628L514.357 471.732C512.582 469.957 510.475 468.548 508.156 467.587C505.837 466.626 503.351 466.131 500.84 466.131C498.33 466.131 495.844 466.626 493.524 467.587C491.205 468.548 489.098 469.957 487.323 471.732L398.956 560.1C395.405 563.657 391.186 566.476 386.542 568.396C381.897 570.316 376.919 571.298 371.893 571.285H307.527C302.507 571.288 297.536 570.301 292.898 568.382C288.259 566.463 284.044 563.648 280.493 560.1L125.557 405.135C118.422 397.947 114.421 388.229 114.429 378.101V374.954C114.437 364.819 118.458 355.099 125.614 347.921L347.892 125.671C355.004 118.515 364.665 114.472 374.754 114.429H628.5C633.52 114.426 638.491 115.413 643.129 117.332C647.768 119.251 651.983 122.066 655.533 125.614L808.954 279.063C811.626 281.743 815.035 283.569 818.747 284.31C822.458 285.05 826.307 284.672 829.803 283.222C833.299 281.773 836.287 279.318 838.386 276.168C840.485 273.019 841.602 269.317 841.594 265.532V165.407C841.588 155.265 837.555 145.541 830.38 138.373L702.964 11.1854C695.789 4.0243 686.067 0.00164345 675.93 0L327.409 0C317.273 0.00789881 307.553 4.02961 300.375 11.1854L11.1854 300.375C4.02262 307.561 0.000332558 317.292 4.15078e-07 327.438V425.618C-0.00149202 435.755 4.02164 445.479 11.1854 452.651L233.12 674.586C240.293 681.75 250.016 685.773 260.154 685.771Z" fill="white"/>
<path d="M581.441 229.118H422.242C412.107 229.126 402.387 233.147 395.209 240.303L273.313 362.227C271.538 364.002 270.129 366.109 269.168 368.428C268.207 370.747 267.712 373.233 267.712 375.744C267.712 378.254 268.207 380.74 269.168 383.06C270.129 385.379 271.538 387.486 273.313 389.261L327.238 443.157C329.013 444.932 331.12 446.341 333.439 447.302C335.758 448.263 338.244 448.758 340.755 448.758C343.265 448.758 345.751 448.263 348.071 447.302C350.39 446.341 352.497 444.932 354.272 443.157L442.639 354.732C446.188 351.181 450.403 348.365 455.042 346.446C459.681 344.526 464.653 343.541 469.673 343.546H534.039C539.059 343.544 544.03 344.531 548.669 346.45C553.307 348.369 557.522 351.183 561.073 354.732L716.038 509.697C723.194 516.875 727.216 526.595 727.223 536.731V539.877C727.216 550.013 723.194 559.733 716.038 566.911L493.76 789.16C490.213 792.714 485.999 795.531 481.36 797.451C476.72 799.371 471.747 800.354 466.726 800.346H213.095C208.06 800.371 203.07 799.4 198.411 797.491C193.752 795.581 189.516 792.769 185.947 789.218L32.6412 635.769C29.9634 633.083 26.5471 631.255 22.8272 630.518C19.1074 629.78 15.2521 630.166 11.7521 631.626C8.25208 633.086 5.26567 635.554 3.17296 638.717C1.08025 641.88 -0.024127 645.594 0.000399837 649.386V749.511C0.00649545 759.653 4.04016 769.377 11.2144 776.545L138.631 903.704C145.809 910.859 155.529 914.881 165.665 914.889H514.186C524.321 914.881 534.041 910.859 541.22 903.704L830.41 614.485C837.565 607.307 841.587 597.587 841.595 587.451V489.186C841.596 479.048 837.573 469.325 830.41 462.152L608.475 240.303C601.302 233.139 591.579 229.116 581.441 229.118Z" fill="white"/>
</svg>
